<svg xmlns="http://www.w3.org/2000/svg" xmlns:xlink="http://www.w3.org/1999/xlink" aria-hidden="true" width="58" height="56" style="-ms-transform: rotate(360deg); -webkit-transform: rotate(360deg); transform: rotate(360deg);" preserveAspectRatio="xMidYMid meet" viewBox="0 0 464 448"><path d="M212 199q-3 0-4-2 0-7 4-15l3-6v-3l1 3q3 10-1 23h-3zm193-39l-1 1q-14 13-22 52 18-5 25-24 5-16-2-28v-1zm-241 34h1q1 1 2 1l2-1q1-5-1-18-7 8-8 17v1h4zm298 120q0 16-16 16H18q-16 0-16-16V70q0-16 16-16h428q16 0 16 16v244zm-322-90q-6-15-10-41-9-38-14-50l-1 1h-8q-1 0-3 1t-3 1-1-1.5-1-1.5q-10 14-18 52-4-7-7-14-2-3-6.5-11.5T60 147h-4q-8 0-15 3v12q-2 39 5 59h3q3 0 15-4 0-3-.5-8t-.5-7q-2-3 0-8 2 2 5.5 8t5.5 8q2 4 6 10h10q2-1 7-1h2q3-6 3-26 0-16 4-25 7 26 18 59 3 0 9-2 2-1 5-1h2zm53 4q-2-4-7-4-3 0-7 2-3 1-8 1h-2q-5-2-7-5-4-7-1-21 5 1 16 1h5l1 1q4-16-1-38-1 0-2.5-.5T177 163q-6-2-10-2h-2q-17 3-21 34-4 29 15 36 3 2 10 2 14 0 24-5zm47-3q-1-3-6-5-5 7-12 7-9 0-14-7-5-6-1-15 4 1 12 1h9q-1-9 1-23 2-12 3-20-9-6-18-6-23 19-22 56 1 8 10.5 13t19.5 5q12 0 18-6zm54-35q-4-4-5-6-6-6-11-8-1 0-1 3l-3 5h-2v-1q0-17-1-27-2-28 1-40-4-6-17-6h-1q-1-2-1-3-5 15-1 49 4 18 1 29-3 0-5-1h-5q-3 0-5 2-1 1-1 6 3 2 16 2l4 1q0 11 1 16 0 4 .5 11.5t.5 12.5h4q3-1 9-1 0-3-.5-9t-.5-8v-23q2-1 5-1.5t5-.5q11 0 13-2zm57-10q-11-8-14-8h-2l-1 1v5q0 38-15 43-1-6-2-17t-1-12v-12l-2-1q-2-1-2-2-8-4-13-5-3 40 8 53 5 5 12 5 3 0 11-2l2-2q3-6 8-10l3-6q10-16 8-30zm72-25q-11-7-22-7-13 0-21 11-10 12-17 58 0 1-2 1-1 0-2.5.5T356 220q7 8 9 32 2 19 5 25l2 1h15q-7-14-5-47 30-8 41-33 10-20 0-43z" fill="#ea6263"/></svg>
